<svg width="561" height="57" viewBox="0 0 561 57" fill="none" xmlns="http://www.w3.org/2000/svg">
<rect width="561" height="57" rx="8" fill="url(#paint0_linear_738_6604)"/>
<path d="M48.9247 22.7109V20.7273H60.7447V22.7109H55.9794V36H53.6825V22.7109H48.9247ZM61.1482 36V24.5455H63.3034V26.3651H63.4227C63.6315 25.7486 63.9994 25.2638 64.5264 24.9109C65.0583 24.5529 65.6599 24.3739 66.3311 24.3739C66.4703 24.3739 66.6343 24.3789 66.8233 24.3888C67.0172 24.3988 67.1688 24.4112 67.2782 24.4261V26.5589C67.1887 26.5341 67.0296 26.5067 66.8009 26.4769C66.5722 26.4421 66.3435 26.4247 66.1148 26.4247C65.5878 26.4247 65.118 26.5366 64.7054 26.7603C64.2977 26.979 63.9745 27.2848 63.7359 27.6776C63.4973 28.0653 63.378 28.5078 63.378 29.005V36H61.1482ZM70.1258 40.2955C69.7927 40.2955 69.4895 40.2681 69.216 40.2134C68.9426 40.1637 68.7388 40.109 68.6045 40.0494L69.1415 38.2223C69.5491 38.3317 69.9121 38.3789 70.2302 38.364C70.5484 38.3491 70.8293 38.2298 71.0729 38.006C71.3215 37.7823 71.5403 37.4169 71.7292 36.9098L72.0051 36.1491L67.8141 24.5455H70.2004L73.1013 33.4347H73.2207L76.1216 24.5455H78.5154L73.7949 37.5288C73.5761 38.1254 73.2977 38.63 72.9596 39.0426C72.6216 39.4602 72.2189 39.7734 71.7516 39.9822C71.2842 40.1911 70.7423 40.2955 70.1258 40.2955ZM90.6036 20.7273H92.9005V31.5554C92.9005 32.5348 92.7066 33.3725 92.3188 34.0685C91.936 34.7646 91.3966 35.2965 90.7005 35.6644C90.0045 36.0273 89.1892 36.2088 88.2545 36.2088C87.3944 36.2088 86.6214 36.0522 85.9353 35.739C85.2542 35.4258 84.7148 34.9709 84.317 34.3743C83.9243 33.7727 83.7279 33.0419 83.7279 32.1818H86.0173C86.0173 32.6044 86.1143 32.9698 86.3081 33.2781C86.507 33.5863 86.778 33.8274 87.121 34.0014C87.469 34.1705 87.8667 34.255 88.3142 34.255C88.8014 34.255 89.214 34.1531 89.5521 33.9492C89.8951 33.7404 90.1562 33.4347 90.3351 33.032C90.5141 32.6293 90.6036 32.1371 90.6036 31.5554V20.7273ZM103.744 24.7393C103.665 24.0334 103.337 23.4865 102.76 23.0987C102.183 22.706 101.457 22.5096 100.582 22.5096C99.956 22.5096 99.4141 22.609 98.9567 22.8079C98.4993 23.0018 98.1438 23.2702 97.8903 23.6133C97.6417 23.9513 97.5174 24.3366 97.5174 24.7692C97.5174 25.1321 97.6019 25.4453 97.771 25.7088C97.945 25.9723 98.1712 26.1935 98.4496 26.3725C98.733 26.5465 99.0362 26.6932 99.3594 26.8125C99.6825 26.9268 99.9933 27.0213 100.292 27.0959L101.783 27.4837C102.27 27.603 102.77 27.7646 103.282 27.9684C103.794 28.1722 104.269 28.4407 104.706 28.7738C105.144 29.1069 105.497 29.5195 105.765 30.0117C106.039 30.5039 106.175 31.093 106.175 31.7791C106.175 32.6442 105.952 33.4123 105.504 34.0835C105.062 34.7546 104.418 35.2841 103.573 35.6719C102.733 36.0597 101.716 36.2536 100.523 36.2536C99.3793 36.2536 98.3899 36.0721 97.5547 35.7092C96.7195 35.3462 96.0657 34.8317 95.5934 34.1655C95.1211 33.4943 94.8601 32.6989 94.8104 31.7791H97.1222C97.1669 32.331 97.3459 32.7908 97.6591 33.1587C97.9773 33.5217 98.3825 33.7926 98.8747 33.9716C99.3718 34.1456 99.9162 34.2326 100.508 34.2326C101.159 34.2326 101.738 34.1307 102.245 33.9268C102.757 33.718 103.16 33.4297 103.453 33.0618C103.747 32.6889 103.893 32.2539 103.893 31.7567C103.893 31.3043 103.764 30.9339 103.506 30.6456C103.252 30.3572 102.907 30.1186 102.469 29.9297C102.037 29.7408 101.547 29.5742 101 29.43L99.1953 28.9379C97.9723 28.6048 97.0029 28.1151 96.2869 27.4688C95.576 26.8224 95.2205 25.9673 95.2205 24.9034C95.2205 24.0234 95.4592 23.2553 95.9365 22.5991C96.4137 21.9428 97.06 21.4332 97.8754 21.0703C98.6907 20.7024 99.6105 20.5185 100.635 20.5185C101.669 20.5185 102.581 20.6999 103.371 21.0629C104.167 21.4258 104.793 21.9254 105.251 22.5618C105.708 23.1932 105.947 23.919 105.967 24.7393H103.744ZM107.91 36V24.5455H110.14V36H107.91ZM109.036 22.7781C108.648 22.7781 108.315 22.6488 108.037 22.3903C107.763 22.1268 107.627 21.8136 107.627 21.4506C107.627 21.0827 107.763 20.7695 108.037 20.511C108.315 20.2475 108.648 20.1158 109.036 20.1158C109.424 20.1158 109.755 20.2475 110.028 20.511C110.306 20.7695 110.446 21.0827 110.446 21.4506C110.446 21.8136 110.306 22.1268 110.028 22.3903C109.755 22.6488 109.424 22.7781 109.036 22.7781ZM117.102 40.5341C116.192 40.5341 115.409 40.4148 114.753 40.1761C114.102 39.9375 113.57 39.6218 113.157 39.229C112.745 38.8363 112.436 38.4063 112.232 37.9389L114.149 37.1484C114.283 37.3672 114.462 37.5984 114.686 37.842C114.915 38.0906 115.223 38.3018 115.611 38.4759C116.003 38.6499 116.508 38.7369 117.125 38.7369C117.97 38.7369 118.668 38.5305 119.22 38.1179C119.772 37.7102 120.048 37.0589 120.048 36.1641V33.9119H119.906C119.772 34.1555 119.578 34.4265 119.324 34.7248C119.076 35.0231 118.733 35.2816 118.295 35.5004C117.858 35.7191 117.289 35.8285 116.588 35.8285C115.683 35.8285 114.867 35.6172 114.142 35.1946C113.421 34.767 112.849 34.1381 112.426 33.3079C112.009 32.4727 111.8 31.446 111.8 30.228C111.8 29.0099 112.006 27.9659 112.419 27.0959C112.837 26.2259 113.408 25.5597 114.134 25.0973C114.86 24.63 115.683 24.3963 116.603 24.3963C117.313 24.3963 117.888 24.5156 118.325 24.7543C118.763 24.9879 119.103 25.2614 119.347 25.5746C119.595 25.8878 119.787 26.1637 119.921 26.4023H120.085V24.5455H122.27V36.2536C122.27 37.2379 122.041 38.0458 121.584 38.6772C121.127 39.3086 120.508 39.7759 119.727 40.0792C118.952 40.3825 118.077 40.5341 117.102 40.5341ZM117.08 33.979C117.721 33.979 118.263 33.8299 118.705 33.5316C119.153 33.2283 119.491 32.7958 119.72 32.234C119.953 31.6673 120.07 30.9886 120.07 30.1982C120.07 29.4276 119.956 28.7489 119.727 28.1623C119.498 27.5756 119.163 27.1183 118.72 26.7901C118.278 26.457 117.731 26.2905 117.08 26.2905C116.409 26.2905 115.849 26.4645 115.402 26.8125C114.954 27.1555 114.616 27.6229 114.388 28.2145C114.164 28.8061 114.052 29.4673 114.052 30.1982C114.052 30.9489 114.166 31.6076 114.395 32.1744C114.624 32.7411 114.962 33.1836 115.409 33.5018C115.862 33.82 116.419 33.979 117.08 33.979ZM126.65 29.1989V36H124.421V20.7273H126.62V26.4098H126.762C127.031 25.7933 127.441 25.3036 127.993 24.9407C128.544 24.5778 129.265 24.3963 130.155 24.3963C130.941 24.3963 131.627 24.5579 132.214 24.881C132.805 25.2042 133.263 25.6864 133.586 26.3278C133.914 26.9641 134.078 27.7596 134.078 28.7141V36H131.848V28.9826C131.848 28.1424 131.632 27.4911 131.199 27.0288C130.767 26.5614 130.165 26.3278 129.395 26.3278C128.868 26.3278 128.395 26.4396 127.978 26.6634C127.565 26.8871 127.239 27.2152 127.001 27.6477C126.767 28.0753 126.65 28.5923 126.65 29.1989ZM141.56 24.5455V26.3352H135.304V24.5455H141.56ZM136.981 21.8011H139.211V32.6367C139.211 33.0692 139.276 33.3949 139.405 33.6136C139.534 33.8274 139.701 33.9741 139.905 34.0536C140.114 34.1282 140.34 34.1655 140.583 34.1655C140.762 34.1655 140.919 34.1531 141.053 34.1282C141.187 34.1033 141.292 34.0835 141.366 34.0685L141.769 35.9105C141.64 35.9602 141.456 36.0099 141.217 36.0597C140.979 36.1143 140.68 36.1442 140.322 36.1491C139.736 36.1591 139.189 36.0547 138.682 35.8359C138.175 35.6172 137.764 35.2791 137.451 34.8217C137.138 34.3643 136.981 33.7901 136.981 33.0991V21.8011ZM149.374 36H146.928L152.424 20.7273H155.086L160.582 36H158.136L153.818 23.5014H153.699L149.374 36ZM149.784 30.0192H157.718V31.9581H149.784V30.0192ZM161.948 36V20.7273H167.391C168.58 20.7273 169.564 20.9435 170.345 21.3761C171.125 21.8086 171.709 22.4002 172.097 23.1509C172.485 23.8967 172.679 24.7369 172.679 25.6715C172.679 26.6112 172.482 27.4563 172.09 28.207C171.702 28.9528 171.115 29.5444 170.33 29.9819C169.549 30.4144 168.567 30.6307 167.384 30.6307H163.64V28.6768H167.175C167.926 28.6768 168.535 28.5476 169.002 28.2891C169.47 28.0256 169.813 27.6676 170.031 27.2152C170.25 26.7628 170.359 26.2482 170.359 25.6715C170.359 25.0948 170.25 24.5827 170.031 24.1353C169.813 23.6879 169.467 23.3374 168.995 23.0838C168.527 22.8303 167.911 22.7035 167.145 22.7035H164.252V36H161.948ZM176.844 20.7273V36H174.54V20.7273H176.844ZM187.232 36.2536C186.507 36.2536 185.85 36.1193 185.264 35.8509C184.677 35.5774 184.212 35.1822 183.869 34.6651C183.531 34.1481 183.362 33.5142 183.362 32.7635C183.362 32.1172 183.486 31.5852 183.735 31.1676C183.983 30.75 184.319 30.4194 184.742 30.1758C185.164 29.9322 185.636 29.7482 186.159 29.6239C186.681 29.4996 187.212 29.4052 187.754 29.3406C188.44 29.261 188.997 29.1964 189.425 29.1467C189.852 29.092 190.163 29.005 190.357 28.8857C190.551 28.7663 190.648 28.5724 190.648 28.304V28.2518C190.648 27.6005 190.464 27.0959 190.096 26.7379C189.733 26.38 189.191 26.201 188.47 26.201C187.72 26.201 187.128 26.3675 186.695 26.7006C186.268 27.0288 185.972 27.3942 185.808 27.7969L183.712 27.3196C183.961 26.6236 184.324 26.0618 184.801 25.6342C185.284 25.2017 185.838 24.8885 186.464 24.6946C187.091 24.4957 187.749 24.3963 188.44 24.3963C188.898 24.3963 189.383 24.451 189.895 24.5604C190.412 24.6648 190.894 24.8587 191.341 25.142C191.794 25.4254 192.164 25.8306 192.453 26.3576C192.741 26.8796 192.885 27.5582 192.885 28.3935V36H190.708V34.4339H190.618C190.474 34.7223 190.258 35.0057 189.969 35.2841C189.681 35.5625 189.311 35.7937 188.858 35.9776C188.406 36.1616 187.864 36.2536 187.232 36.2536ZM187.717 34.4638C188.334 34.4638 188.861 34.342 189.298 34.0984C189.741 33.8548 190.076 33.5366 190.305 33.1438C190.538 32.7461 190.655 32.321 190.655 31.8686V30.392C190.576 30.4716 190.422 30.5462 190.193 30.6158C189.969 30.6804 189.713 30.7376 189.425 30.7873C189.136 30.832 188.856 30.8743 188.582 30.9141C188.309 30.9489 188.08 30.9787 187.896 31.0036C187.464 31.0582 187.068 31.1502 186.71 31.2795C186.357 31.4087 186.074 31.5952 185.86 31.8388C185.651 32.0774 185.547 32.3956 185.547 32.7933C185.547 33.3452 185.751 33.7628 186.159 34.0462C186.566 34.3246 187.086 34.4638 187.717 34.4638ZM197.245 29.1989V36H195.015V24.5455H197.155V26.4098H197.297C197.56 25.8033 197.973 25.3161 198.535 24.9482C199.102 24.5803 199.815 24.3963 200.675 24.3963C201.456 24.3963 202.139 24.5604 202.726 24.8885C203.313 25.2116 203.767 25.6939 204.091 26.3352C204.414 26.9766 204.575 27.7695 204.575 28.7141V36H202.346V28.9826C202.346 28.1523 202.129 27.5036 201.697 27.0362C201.264 26.5639 200.67 26.3278 199.914 26.3278C199.397 26.3278 198.938 26.4396 198.535 26.6634C198.137 26.8871 197.821 27.2152 197.588 27.6477C197.359 28.0753 197.245 28.5923 197.245 29.1989ZM211.014 36.2237C210.089 36.2237 209.264 35.9876 208.538 35.5153C207.817 35.038 207.25 34.3594 206.838 33.4794C206.43 32.5945 206.226 31.533 206.226 30.2951C206.226 29.0572 206.432 27.9982 206.845 27.1183C207.263 26.2383 207.834 25.5646 208.56 25.0973C209.286 24.63 210.109 24.3963 211.029 24.3963C211.74 24.3963 212.311 24.5156 212.744 24.7543C213.181 24.9879 213.519 25.2614 213.758 25.5746C214.002 25.8878 214.191 26.1637 214.325 26.4023H214.459V20.7273H216.689V36H214.511V34.2177H214.325C214.191 34.4613 213.997 34.7397 213.743 35.0529C213.495 35.3661 213.152 35.6396 212.714 35.8732C212.277 36.1069 211.71 36.2237 211.014 36.2237ZM211.506 34.3221C212.147 34.3221 212.689 34.1531 213.132 33.815C213.579 33.4719 213.917 32.9972 214.146 32.3906C214.38 31.7841 214.496 31.0781 214.496 30.2727C214.496 29.4773 214.382 28.7812 214.153 28.1847C213.925 27.5881 213.589 27.1232 213.147 26.7901C212.704 26.457 212.157 26.2905 211.506 26.2905C210.835 26.2905 210.275 26.4645 209.828 26.8125C209.381 27.1605 209.043 27.6353 208.814 28.2369C208.59 28.8384 208.478 29.517 208.478 30.2727C208.478 31.0384 208.593 31.7269 208.821 32.3384C209.05 32.9499 209.388 33.4347 209.836 33.7926C210.288 34.1456 210.845 34.3221 211.506 34.3221ZM229.864 20.7273H232.161V31.5554C232.161 32.5348 231.967 33.3725 231.579 34.0685C231.196 34.7646 230.657 35.2965 229.961 35.6644C229.265 36.0273 228.45 36.2088 227.515 36.2088C226.655 36.2088 225.882 36.0522 225.196 35.739C224.515 35.4258 223.975 34.9709 223.577 34.3743C223.185 33.7727 222.988 33.0419 222.988 32.1818H225.278C225.278 32.6044 225.375 32.9698 225.568 33.2781C225.767 33.5863 226.038 33.8274 226.381 34.0014C226.729 34.1705 227.127 34.255 227.575 34.255C228.062 34.255 228.474 34.1531 228.812 33.9492C229.155 33.7404 229.417 33.4347 229.595 33.032C229.774 32.6293 229.864 32.1371 229.864 31.5554V20.7273ZM243.005 24.7393C242.925 24.0334 242.597 23.4865 242.02 23.0987C241.444 22.706 240.718 22.5096 239.843 22.5096C239.216 22.5096 238.674 22.609 238.217 22.8079C237.76 23.0018 237.404 23.2702 237.151 23.6133C236.902 23.9513 236.778 24.3366 236.778 24.7692C236.778 25.1321 236.862 25.4453 237.031 25.7088C237.205 25.9723 237.432 26.1935 237.71 26.3725C237.993 26.5465 238.297 26.6932 238.62 26.8125C238.943 26.9268 239.254 27.0213 239.552 27.0959L241.043 27.4837C241.531 27.603 242.03 27.7646 242.542 27.9684C243.054 28.1722 243.529 28.4407 243.967 28.7738C244.404 29.1069 244.757 29.5195 245.026 30.0117C245.299 30.5039 245.436 31.093 245.436 31.7791C245.436 32.6442 245.212 33.4123 244.765 34.0835C244.322 34.7546 243.678 35.2841 242.833 35.6719C241.993 36.0597 240.976 36.2536 239.783 36.2536C238.64 36.2536 237.65 36.0721 236.815 35.7092C235.98 35.3462 235.326 34.8317 234.854 34.1655C234.381 33.4943 234.12 32.6989 234.071 31.7791H236.383C236.427 32.331 236.606 32.7908 236.919 33.1587C237.238 33.5217 237.643 33.7926 238.135 33.9716C238.632 34.1456 239.177 34.2326 239.768 34.2326C240.419 34.2326 240.999 34.1307 241.506 33.9268C242.018 33.718 242.421 33.4297 242.714 33.0618C243.007 32.6889 243.154 32.2539 243.154 31.7567C243.154 31.3043 243.025 30.9339 242.766 30.6456C242.512 30.3572 242.167 30.1186 241.729 29.9297C241.297 29.7408 240.807 29.5742 240.26 29.43L238.456 28.9379C237.233 28.6048 236.263 28.1151 235.547 27.4688C234.836 26.8224 234.481 25.9673 234.481 24.9034C234.481 24.0234 234.72 23.2553 235.197 22.5991C235.674 21.9428 236.32 21.4332 237.136 21.0703C237.951 20.7024 238.871 20.5185 239.895 20.5185C240.929 20.5185 241.841 20.6999 242.632 21.0629C243.427 21.4258 244.054 21.9254 244.511 22.5618C244.968 23.1932 245.207 23.919 245.227 24.7393H243.005ZM247.17 36V24.5455H249.4V36H247.17ZM248.297 22.7781C247.909 22.7781 247.576 22.6488 247.297 22.3903C247.024 22.1268 246.887 21.8136 246.887 21.4506C246.887 21.0827 247.024 20.7695 247.297 20.511C247.576 20.2475 247.909 20.1158 248.297 20.1158C248.684 20.1158 249.015 20.2475 249.288 20.511C249.567 20.7695 249.706 21.0827 249.706 21.4506C249.706 21.8136 249.567 22.1268 249.288 22.3903C249.015 22.6488 248.684 22.7781 248.297 22.7781ZM256.363 40.5341C255.453 40.5341 254.67 40.4148 254.013 40.1761C253.362 39.9375 252.83 39.6218 252.418 39.229C252.005 38.8363 251.697 38.4063 251.493 37.9389L253.409 37.1484C253.544 37.3672 253.723 37.5984 253.946 37.842C254.175 38.0906 254.483 38.3018 254.871 38.4759C255.264 38.6499 255.768 38.7369 256.385 38.7369C257.23 38.7369 257.929 38.5305 258.48 38.1179C259.032 37.7102 259.308 37.0589 259.308 36.1641V33.9119H259.166C259.032 34.1555 258.838 34.4265 258.585 34.7248C258.336 35.0231 257.993 35.2816 257.556 35.5004C257.118 35.7191 256.549 35.8285 255.848 35.8285C254.943 35.8285 254.128 35.6172 253.402 35.1946C252.681 34.767 252.109 34.1381 251.687 33.3079C251.269 32.4727 251.06 31.446 251.06 30.228C251.06 29.0099 251.267 27.9659 251.679 27.0959C252.097 26.2259 252.669 25.5597 253.394 25.0973C254.12 24.63 254.943 24.3963 255.863 24.3963C256.574 24.3963 257.148 24.5156 257.586 24.7543C258.023 24.9879 258.364 25.2614 258.607 25.5746C258.856 25.8878 259.047 26.1637 259.181 26.4023H259.345V24.5455H261.53V36.2536C261.53 37.2379 261.302 38.0458 260.844 38.6772C260.387 39.3086 259.768 39.7759 258.988 40.0792C258.212 40.3825 257.337 40.5341 256.363 40.5341ZM256.34 33.979C256.981 33.979 257.523 33.8299 257.966 33.5316C258.413 33.2283 258.751 32.7958 258.98 32.234C259.214 31.6673 259.331 30.9886 259.331 30.1982C259.331 29.4276 259.216 28.7489 258.988 28.1623C258.759 27.5756 258.423 27.1183 257.981 26.7901C257.538 26.457 256.991 26.2905 256.34 26.2905C255.669 26.2905 255.11 26.4645 254.662 26.8125C254.215 27.1555 253.877 27.6229 253.648 28.2145C253.424 28.8061 253.312 29.4673 253.312 30.1982C253.312 30.9489 253.427 31.6076 253.655 32.1744C253.884 32.7411 254.222 33.1836 254.67 33.5018C255.122 33.82 255.679 33.979 256.34 33.979ZM265.911 29.1989V36H263.681V20.7273H265.881V26.4098H266.023C266.291 25.7933 266.701 25.3036 267.253 24.9407C267.805 24.5778 268.526 24.3963 269.416 24.3963C270.201 24.3963 270.887 24.5579 271.474 24.881C272.065 25.2042 272.523 25.6864 272.846 26.3278C273.174 26.9641 273.338 27.7596 273.338 28.7141V36H271.108V28.9826C271.108 28.1424 270.892 27.4911 270.46 27.0288C270.027 26.5614 269.426 26.3278 268.655 26.3278C268.128 26.3278 267.656 26.4396 267.238 26.6634C266.825 26.8871 266.5 27.2152 266.261 27.6477C266.027 28.0753 265.911 28.5923 265.911 29.1989ZM280.821 24.5455V26.3352H274.564V24.5455H280.821ZM276.242 21.8011H278.472V32.6367C278.472 33.0692 278.536 33.3949 278.665 33.6136C278.795 33.8274 278.961 33.9741 279.165 34.0536C279.374 34.1282 279.6 34.1655 279.844 34.1655C280.023 34.1655 280.179 34.1531 280.314 34.1282C280.448 34.1033 280.552 34.0835 280.627 34.0685L281.029 35.9105C280.9 35.9602 280.716 36.0099 280.478 36.0597C280.239 36.1143 279.941 36.1442 279.583 36.1491C278.996 36.1591 278.449 36.0547 277.942 35.8359C277.435 35.6172 277.025 35.2791 276.712 34.8217C276.398 34.3643 276.242 33.7901 276.242 33.0991V21.8011ZM295.674 24.7393C295.594 24.0334 295.266 23.4865 294.689 23.0987C294.113 22.706 293.387 22.5096 292.512 22.5096C291.885 22.5096 291.343 22.609 290.886 22.8079C290.429 23.0018 290.073 23.2702 289.82 23.6133C289.571 23.9513 289.447 24.3366 289.447 24.7692C289.447 25.1321 289.531 25.4453 289.7 25.7088C289.874 25.9723 290.101 26.1935 290.379 26.3725C290.662 26.5465 290.966 26.6932 291.289 26.8125C291.612 26.9268 291.923 27.0213 292.221 27.0959L293.712 27.4837C294.2 27.603 294.699 27.7646 295.211 27.9684C295.723 28.1722 296.198 28.4407 296.636 28.7738C297.073 29.1069 297.426 29.5195 297.695 30.0117C297.968 30.5039 298.105 31.093 298.105 31.7791C298.105 32.6442 297.881 33.4123 297.434 34.0835C296.991 34.7546 296.347 35.2841 295.502 35.6719C294.662 36.0597 293.645 36.2536 292.452 36.2536C291.309 36.2536 290.319 36.0721 289.484 35.7092C288.649 35.3462 287.995 34.8317 287.523 34.1655C287.05 33.4943 286.789 32.6989 286.74 31.7791H289.052C289.096 32.331 289.275 32.7908 289.588 33.1587C289.907 33.5217 290.312 33.7926 290.804 33.9716C291.301 34.1456 291.846 34.2326 292.437 34.2326C293.088 34.2326 293.668 34.1307 294.175 33.9268C294.687 33.718 295.09 33.4297 295.383 33.0618C295.676 32.6889 295.823 32.2539 295.823 31.7567C295.823 31.3043 295.694 30.9339 295.435 30.6456C295.181 30.3572 294.836 30.1186 294.398 29.9297C293.966 29.7408 293.476 29.5742 292.929 29.43L291.125 28.9379C289.902 28.6048 288.932 28.1151 288.216 27.4688C287.505 26.8224 287.15 25.9673 287.15 24.9034C287.15 24.0234 287.389 23.2553 287.866 22.5991C288.343 21.9428 288.989 21.4332 289.805 21.0703C290.62 20.7024 291.54 20.5185 292.564 20.5185C293.598 20.5185 294.51 20.6999 295.301 21.0629C296.096 21.4258 296.723 21.9254 297.18 22.5618C297.637 23.1932 297.876 23.919 297.896 24.7393H295.674ZM304.664 36.2312C303.556 36.2312 302.601 35.9801 301.801 35.478C301.005 34.9709 300.394 34.2724 299.966 33.3825C299.539 32.4925 299.325 31.4734 299.325 30.3249C299.325 29.1616 299.544 28.1349 299.981 27.245C300.419 26.3501 301.035 25.6516 301.831 25.1495C302.626 24.6474 303.563 24.3963 304.642 24.3963C305.512 24.3963 306.288 24.5579 306.969 24.881C307.65 25.1992 308.199 25.6467 308.617 26.2234C309.039 26.8001 309.29 27.4737 309.37 28.2443H307.2C307.081 27.7074 306.807 27.245 306.38 26.8572C305.957 26.4695 305.39 26.2756 304.679 26.2756C304.058 26.2756 303.513 26.4396 303.046 26.7678C302.584 27.0909 302.223 27.5533 301.965 28.1548C301.706 28.7514 301.577 29.4574 301.577 30.2727C301.577 31.108 301.704 31.8288 301.957 32.4354C302.211 33.0419 302.569 33.5117 303.031 33.8448C303.499 34.1779 304.048 34.3445 304.679 34.3445C305.102 34.3445 305.485 34.2674 305.828 34.1133C306.176 33.9542 306.467 33.728 306.7 33.4347C306.939 33.1413 307.105 32.7884 307.2 32.3757H309.37C309.29 33.1165 309.049 33.7777 308.647 34.3594C308.244 34.9411 307.705 35.3984 307.028 35.7315C306.357 36.0646 305.569 36.2312 304.664 36.2312ZM313.144 29.1989V36H310.914V20.7273H313.114V26.4098H313.256C313.525 25.7933 313.935 25.3036 314.487 24.9407C315.038 24.5778 315.759 24.3963 316.649 24.3963C317.435 24.3963 318.121 24.5579 318.707 24.881C319.299 25.2042 319.756 25.6864 320.08 26.3278C320.408 26.9641 320.572 27.7596 320.572 28.7141V36H318.342V28.9826C318.342 28.1424 318.126 27.4911 317.693 27.0288C317.261 26.5614 316.659 26.3278 315.889 26.3278C315.362 26.3278 314.889 26.4396 314.472 26.6634C314.059 26.8871 313.733 27.2152 313.495 27.6477C313.261 28.0753 313.144 28.5923 313.144 29.1989ZM327.644 36.2312C326.516 36.2312 325.544 35.9901 324.728 35.5078C323.918 35.0206 323.291 34.337 322.849 33.457C322.411 32.5721 322.193 31.5355 322.193 30.3473C322.193 29.174 322.411 28.1399 322.849 27.245C323.291 26.3501 323.908 25.6516 324.698 25.1495C325.494 24.6474 326.424 24.3963 327.487 24.3963C328.134 24.3963 328.76 24.5032 329.367 24.717C329.973 24.9308 330.518 25.2663 331 25.7237C331.482 26.1811 331.862 26.7752 332.141 27.506C332.419 28.2319 332.559 29.1143 332.559 30.1534V30.9439H323.453V29.2734H330.374C330.374 28.6868 330.254 28.1673 330.016 27.7148C329.777 27.2575 329.441 26.897 329.009 26.6335C328.581 26.37 328.079 26.2383 327.502 26.2383C326.876 26.2383 326.329 26.3924 325.862 26.7006C325.399 27.0039 325.041 27.4016 324.788 27.8938C324.539 28.381 324.415 28.9105 324.415 29.4822V30.7873C324.415 31.5529 324.549 32.2042 324.818 32.7411C325.091 33.2781 325.472 33.6882 325.959 33.9716C326.446 34.25 327.015 34.3892 327.666 34.3892C328.089 34.3892 328.474 34.3295 328.822 34.2102C329.17 34.0859 329.471 33.902 329.725 33.6584C329.978 33.4148 330.172 33.114 330.306 32.756L332.417 33.1364C332.248 33.7578 331.945 34.3022 331.507 34.7695C331.074 35.2319 330.53 35.5923 329.874 35.8509C329.223 36.1044 328.479 36.2312 327.644 36.2312ZM334.192 36V24.5455H336.333V26.4098H336.474C336.713 25.7784 337.103 25.2862 337.645 24.9332C338.187 24.5753 338.836 24.3963 339.592 24.3963C340.357 24.3963 340.999 24.5753 341.516 24.9332C342.038 25.2912 342.423 25.7834 342.672 26.4098H342.791C343.064 25.7983 343.499 25.3111 344.096 24.9482C344.692 24.5803 345.403 24.3963 346.229 24.3963C347.268 24.3963 348.115 24.7219 348.772 25.3732C349.433 26.0245 349.764 27.0064 349.764 28.3189V36H347.534V28.5277C347.534 27.7521 347.322 27.1903 346.9 26.8423C346.477 26.4943 345.973 26.3203 345.386 26.3203C344.66 26.3203 344.096 26.544 343.693 26.9915C343.29 27.4339 343.089 28.0032 343.089 28.6992V36H340.867V28.386C340.867 27.7646 340.673 27.2649 340.285 26.8871C339.897 26.5092 339.393 26.3203 338.771 26.3203C338.349 26.3203 337.958 26.4322 337.601 26.6559C337.248 26.8746 336.962 27.1804 336.743 27.5732C336.529 27.9659 336.422 28.4208 336.422 28.9379V36H334.192ZM355.246 36.2536C354.52 36.2536 353.863 36.1193 353.277 35.8509C352.69 35.5774 352.225 35.1822 351.882 34.6651C351.544 34.1481 351.375 33.5142 351.375 32.7635C351.375 32.1172 351.499 31.5852 351.748 31.1676C351.997 30.75 352.332 30.4194 352.755 30.1758C353.177 29.9322 353.65 29.7482 354.172 29.6239C354.694 29.4996 355.226 29.4052 355.768 29.3406C356.454 29.261 357.01 29.1964 357.438 29.1467C357.866 29.092 358.176 29.005 358.37 28.8857C358.564 28.7663 358.661 28.5724 358.661 28.304V28.2518C358.661 27.6005 358.477 27.0959 358.109 26.7379C357.746 26.38 357.204 26.201 356.483 26.201C355.733 26.201 355.141 26.3675 354.709 26.7006C354.281 27.0288 353.985 27.3942 353.821 27.7969L351.726 27.3196C351.974 26.6236 352.337 26.0618 352.814 25.6342C353.297 25.2017 353.851 24.8885 354.477 24.6946C355.104 24.4957 355.763 24.3963 356.454 24.3963C356.911 24.3963 357.396 24.451 357.908 24.5604C358.425 24.6648 358.907 24.8587 359.355 25.142C359.807 25.4254 360.177 25.8306 360.466 26.3576C360.754 26.8796 360.898 27.5582 360.898 28.3935V36H358.721V34.4339H358.631C358.487 34.7223 358.271 35.0057 357.982 35.2841C357.694 35.5625 357.324 35.7937 356.871 35.9776C356.419 36.1616 355.877 36.2536 355.246 36.2536ZM355.73 34.4638C356.347 34.4638 356.874 34.342 357.311 34.0984C357.754 33.8548 358.089 33.5366 358.318 33.1438C358.552 32.7461 358.668 32.321 358.668 31.8686V30.392C358.589 30.4716 358.435 30.5462 358.206 30.6158C357.982 30.6804 357.726 30.7376 357.438 30.7873C357.15 30.832 356.869 30.8743 356.595 30.9141C356.322 30.9489 356.093 30.9787 355.909 31.0036C355.477 31.0582 355.081 31.1502 354.723 31.2795C354.371 31.4087 354.087 31.5952 353.873 31.8388C353.665 32.0774 353.56 32.3956 353.56 32.7933C353.56 33.3452 353.764 33.7628 354.172 34.0462C354.579 34.3246 355.099 34.4638 355.73 34.4638ZM369.975 20.7273V36H367.746V20.7273H369.975ZM375.469 36.2536C374.743 36.2536 374.087 36.1193 373.5 35.8509C372.913 35.5774 372.448 35.1822 372.105 34.6651C371.767 34.1481 371.598 33.5142 371.598 32.7635C371.598 32.1172 371.723 31.5852 371.971 31.1676C372.22 30.75 372.555 30.4194 372.978 30.1758C373.4 29.9322 373.873 29.7482 374.395 29.6239C374.917 29.4996 375.449 29.4052 375.991 29.3406C376.677 29.261 377.234 29.1964 377.661 29.1467C378.089 29.092 378.399 29.005 378.593 28.8857C378.787 28.7663 378.884 28.5724 378.884 28.304V28.2518C378.884 27.6005 378.7 27.0959 378.332 26.7379C377.969 26.38 377.427 26.201 376.707 26.201C375.956 26.201 375.364 26.3675 374.932 26.7006C374.504 27.0288 374.208 27.3942 374.044 27.7969L371.949 27.3196C372.197 26.6236 372.56 26.0618 373.038 25.6342C373.52 25.2017 374.074 24.8885 374.701 24.6946C375.327 24.4957 375.986 24.3963 376.677 24.3963C377.134 24.3963 377.619 24.451 378.131 24.5604C378.648 24.6648 379.13 24.8587 379.578 25.142C380.03 25.4254 380.4 25.8306 380.689 26.3576C380.977 26.8796 381.121 27.5582 381.121 28.3935V36H378.944V34.4339H378.854C378.71 34.7223 378.494 35.0057 378.206 35.2841C377.917 35.5625 377.547 35.7937 377.094 35.9776C376.642 36.1616 376.1 36.2536 375.469 36.2536ZM375.953 34.4638C376.57 34.4638 377.097 34.342 377.534 34.0984C377.977 33.8548 378.312 33.5366 378.541 33.1438C378.775 32.7461 378.892 32.321 378.892 31.8686V30.392C378.812 30.4716 378.658 30.5462 378.429 30.6158C378.206 30.6804 377.95 30.7376 377.661 30.7873C377.373 30.832 377.092 30.8743 376.818 30.9141C376.545 30.9489 376.316 30.9787 376.132 31.0036C375.7 31.0582 375.305 31.1502 374.947 31.2795C374.594 31.4087 374.31 31.5952 374.097 31.8388C373.888 32.0774 373.783 32.3956 373.783 32.7933C373.783 33.3452 373.987 33.7628 374.395 34.0462C374.802 34.3246 375.322 34.4638 375.953 34.4638ZM385.481 29.1989V36H383.251V24.5455H385.392V26.4098H385.533C385.797 25.8033 386.209 25.3161 386.771 24.9482C387.338 24.5803 388.051 24.3963 388.911 24.3963C389.692 24.3963 390.376 24.5604 390.962 24.8885C391.549 25.2116 392.004 25.6939 392.327 26.3352C392.65 26.9766 392.812 27.7695 392.812 28.7141V36H390.582V28.9826C390.582 28.1523 390.366 27.5036 389.933 27.0362C389.501 26.5639 388.906 26.3278 388.151 26.3278C387.634 26.3278 387.174 26.4396 386.771 26.6634C386.373 26.8871 386.058 27.2152 385.824 27.6477C385.595 28.0753 385.481 28.5923 385.481 29.1989ZM399.765 40.5341C398.855 40.5341 398.072 40.4148 397.416 40.1761C396.764 39.9375 396.232 39.6218 395.82 39.229C395.407 38.8363 395.099 38.4063 394.895 37.9389L396.812 37.1484C396.946 37.3672 397.125 37.5984 397.348 37.842C397.577 38.0906 397.885 38.3018 398.273 38.4759C398.666 38.6499 399.171 38.7369 399.787 38.7369C400.632 38.7369 401.331 38.5305 401.883 38.1179C402.434 37.7102 402.71 37.0589 402.71 36.1641V33.9119H402.569C402.434 34.1555 402.24 34.4265 401.987 34.7248C401.738 35.0231 401.395 35.2816 400.958 35.5004C400.52 35.7191 399.951 35.8285 399.25 35.8285C398.345 35.8285 397.53 35.6172 396.804 35.1946C396.083 34.767 395.511 34.1381 395.089 33.3079C394.671 32.4727 394.462 31.446 394.462 30.228C394.462 29.0099 394.669 27.9659 395.081 27.0959C395.499 26.2259 396.071 25.5597 396.797 25.0973C397.522 24.63 398.345 24.3963 399.265 24.3963C399.976 24.3963 400.55 24.5156 400.988 24.7543C401.425 24.9879 401.766 25.2614 402.009 25.5746C402.258 25.8878 402.449 26.1637 402.584 26.4023H402.748V24.5455H404.933V36.2536C404.933 37.2379 404.704 38.0458 404.247 38.6772C403.789 39.3086 403.17 39.7759 402.39 40.0792C401.614 40.3825 400.739 40.5341 399.765 40.5341ZM399.742 33.979C400.384 33.979 400.925 33.8299 401.368 33.5316C401.815 33.2283 402.153 32.7958 402.382 32.234C402.616 31.6673 402.733 30.9886 402.733 30.1982C402.733 29.4276 402.618 28.7489 402.39 28.1623C402.161 27.5756 401.825 27.1183 401.383 26.7901C400.94 26.457 400.394 26.2905 399.742 26.2905C399.071 26.2905 398.512 26.4645 398.064 26.8125C397.617 27.1555 397.279 27.6229 397.05 28.2145C396.826 28.8061 396.715 29.4673 396.715 30.1982C396.715 30.9489 396.829 31.6076 397.058 32.1744C397.286 32.7411 397.624 33.1836 398.072 33.5018C398.524 33.82 399.081 33.979 399.742 33.979ZM414.339 31.2496V24.5455H416.576V36H414.384V34.0163H414.264C414.001 34.6278 413.578 35.1374 412.997 35.5451C412.42 35.9478 411.702 36.1491 410.842 36.1491C410.106 36.1491 409.454 35.9876 408.888 35.6644C408.326 35.3363 407.883 34.8516 407.56 34.2102C407.242 33.5689 407.083 32.7759 407.083 31.8313V24.5455H409.313V31.5629C409.313 32.3434 409.529 32.9648 409.962 33.4272C410.394 33.8896 410.956 34.1207 411.647 34.1207C412.065 34.1207 412.48 34.0163 412.892 33.8075C413.31 33.5987 413.655 33.283 413.929 32.8604C414.207 32.4379 414.344 31.9009 414.339 31.2496ZM422.066 36.2536C421.34 36.2536 420.684 36.1193 420.097 35.8509C419.51 35.5774 419.045 35.1822 418.702 34.6651C418.364 34.1481 418.195 33.5142 418.195 32.7635C418.195 32.1172 418.32 31.5852 418.568 31.1676C418.817 30.75 419.152 30.4194 419.575 30.1758C419.998 29.9322 420.47 29.7482 420.992 29.6239C421.514 29.4996 422.046 29.4052 422.588 29.3406C423.274 29.261 423.831 29.1964 424.258 29.1467C424.686 29.092 424.996 29.005 425.19 28.8857C425.384 28.7663 425.481 28.5724 425.481 28.304V28.2518C425.481 27.6005 425.297 27.0959 424.929 26.7379C424.566 26.38 424.025 26.201 423.304 26.201C422.553 26.201 421.961 26.3675 421.529 26.7006C421.101 27.0288 420.805 27.3942 420.641 27.7969L418.546 27.3196C418.794 26.6236 419.157 26.0618 419.635 25.6342C420.117 25.2017 420.671 24.8885 421.298 24.6946C421.924 24.4957 422.583 24.3963 423.274 24.3963C423.731 24.3963 424.216 24.451 424.728 24.5604C425.245 24.6648 425.727 24.8587 426.175 25.142C426.627 25.4254 426.998 25.8306 427.286 26.3576C427.574 26.8796 427.718 27.5582 427.718 28.3935V36H425.541V34.4339H425.451C425.307 34.7223 425.091 35.0057 424.803 35.2841C424.514 35.5625 424.144 35.7937 423.691 35.9776C423.239 36.1616 422.697 36.2536 422.066 36.2536ZM422.55 34.4638C423.167 34.4638 423.694 34.342 424.131 34.0984C424.574 33.8548 424.909 33.5366 425.138 33.1438C425.372 32.7461 425.489 32.321 425.489 31.8686V30.392C425.409 30.4716 425.255 30.5462 425.026 30.6158C424.803 30.6804 424.547 30.7376 424.258 30.7873C423.97 30.832 423.689 30.8743 423.415 30.9141C423.142 30.9489 422.913 30.9787 422.729 31.0036C422.297 31.0582 421.902 31.1502 421.544 31.2795C421.191 31.4087 420.907 31.5952 420.694 31.8388C420.485 32.0774 420.38 32.3956 420.38 32.7933C420.38 33.3452 420.584 33.7628 420.992 34.0462C421.4 34.3246 421.919 34.4638 422.55 34.4638ZM434.651 40.5341C433.741 40.5341 432.958 40.4148 432.302 40.1761C431.651 39.9375 431.119 39.6218 430.706 39.229C430.293 38.8363 429.985 38.4063 429.781 37.9389L431.698 37.1484C431.832 37.3672 432.011 37.5984 432.235 37.842C432.463 38.0906 432.772 38.3018 433.159 38.4759C433.552 38.6499 434.057 38.7369 434.673 38.7369C435.518 38.7369 436.217 38.5305 436.769 38.1179C437.321 37.7102 437.597 37.0589 437.597 36.1641V33.9119H437.455C437.321 34.1555 437.127 34.4265 436.873 34.7248C436.625 35.0231 436.282 35.2816 435.844 35.5004C435.407 35.7191 434.837 35.8285 434.136 35.8285C433.231 35.8285 432.416 35.6172 431.69 35.1946C430.969 34.767 430.398 34.1381 429.975 33.3079C429.557 32.4727 429.349 31.446 429.349 30.228C429.349 29.0099 429.555 27.9659 429.968 27.0959C430.385 26.2259 430.957 25.5597 431.683 25.0973C432.409 24.63 433.231 24.3963 434.151 24.3963C434.862 24.3963 435.436 24.5156 435.874 24.7543C436.311 24.9879 436.652 25.2614 436.896 25.5746C437.144 25.8878 437.336 26.1637 437.47 26.4023H437.634V24.5455H439.819V36.2536C439.819 37.2379 439.59 38.0458 439.133 38.6772C438.675 39.3086 438.056 39.7759 437.276 40.0792C436.5 40.3825 435.625 40.5341 434.651 40.5341ZM434.628 33.979C435.27 33.979 435.812 33.8299 436.254 33.5316C436.702 33.2283 437.04 32.7958 437.268 32.234C437.502 31.6673 437.619 30.9886 437.619 30.1982C437.619 29.4276 437.505 28.7489 437.276 28.1623C437.047 27.5756 436.712 27.1183 436.269 26.7901C435.827 26.457 435.28 26.2905 434.628 26.2905C433.957 26.2905 433.398 26.4645 432.951 26.8125C432.503 27.1555 432.165 27.6229 431.936 28.2145C431.713 28.8061 431.601 29.4673 431.601 30.1982C431.601 30.9489 431.715 31.6076 431.944 32.1744C432.173 32.7411 432.511 33.1836 432.958 33.5018C433.41 33.82 433.967 33.979 434.628 33.979ZM446.906 36.2312C445.777 36.2312 444.806 35.9901 443.99 35.5078C443.18 35.0206 442.553 34.337 442.111 33.457C441.673 32.5721 441.455 31.5355 441.455 30.3473C441.455 29.174 441.673 28.1399 442.111 27.245C442.553 26.3501 443.17 25.6516 443.96 25.1495C444.756 24.6474 445.686 24.3963 446.749 24.3963C447.396 24.3963 448.022 24.5032 448.629 24.717C449.235 24.9308 449.78 25.2663 450.262 25.7237C450.744 26.1811 451.124 26.7752 451.403 27.506C451.681 28.2319 451.82 29.1143 451.82 30.1534V30.9439H442.715V29.2734H449.635C449.635 28.6868 449.516 28.1673 449.277 27.7148C449.039 27.2575 448.703 26.897 448.271 26.6335C447.843 26.37 447.341 26.2383 446.764 26.2383C446.138 26.2383 445.591 26.3924 445.124 26.7006C444.661 27.0039 444.303 27.4016 444.05 27.8938C443.801 28.381 443.677 28.9105 443.677 29.4822V30.7873C443.677 31.5529 443.811 32.2042 444.08 32.7411C444.353 33.2781 444.733 33.6882 445.221 33.9716C445.708 34.25 446.277 34.3892 446.928 34.3892C447.351 34.3892 447.736 34.3295 448.084 34.2102C448.432 34.0859 448.733 33.902 448.987 33.6584C449.24 33.4148 449.434 33.114 449.568 32.756L451.679 33.1364C451.51 33.7578 451.206 34.3022 450.769 34.7695C450.336 35.2319 449.792 35.5923 449.136 35.8509C448.485 36.1044 447.741 36.2312 446.906 36.2312ZM462.038 27.342L460.017 27.6999C459.932 27.4414 459.798 27.1953 459.614 26.9616C459.435 26.728 459.192 26.5366 458.883 26.3874C458.575 26.2383 458.19 26.1637 457.728 26.1637C457.096 26.1637 456.569 26.3054 456.147 26.5888C455.724 26.8672 455.513 27.2276 455.513 27.6701C455.513 28.0529 455.654 28.3612 455.938 28.5948C456.221 28.8285 456.679 29.0199 457.31 29.169L459.13 29.5866C460.183 29.8303 460.969 30.2056 461.486 30.7127C462.003 31.2198 462.262 31.8786 462.262 32.6889C462.262 33.375 462.063 33.9865 461.665 34.5234C461.272 35.0554 460.723 35.473 460.017 35.7763C459.316 36.0795 458.503 36.2312 457.578 36.2312C456.296 36.2312 455.249 35.9577 454.439 35.4109C453.628 34.859 453.131 34.076 452.947 33.0618L455.103 32.7337C455.237 33.2955 455.513 33.7205 455.93 34.0089C456.348 34.2923 456.892 34.4339 457.563 34.4339C458.294 34.4339 458.878 34.2823 459.316 33.979C459.753 33.6708 459.972 33.2955 459.972 32.853C459.972 32.495 459.838 32.1942 459.569 31.9506C459.306 31.707 458.901 31.5231 458.354 31.3988L456.415 30.9737C455.346 30.7301 454.556 30.3423 454.044 29.8104C453.536 29.2784 453.283 28.6048 453.283 27.7894C453.283 27.1133 453.472 26.5217 453.85 26.0146C454.228 25.5075 454.75 25.1122 455.416 24.8288C456.082 24.5405 456.845 24.3963 457.705 24.3963C458.943 24.3963 459.918 24.6648 460.628 25.2017C461.339 25.7337 461.809 26.4471 462.038 27.342ZM470.821 29.1989V36H468.591V24.5455H470.731V26.4098H470.873C471.136 25.8033 471.549 25.3161 472.111 24.9482C472.678 24.5803 473.391 24.3963 474.251 24.3963C475.032 24.3963 475.715 24.5604 476.302 24.8885C476.888 25.2116 477.343 25.6939 477.666 26.3352C477.99 26.9766 478.151 27.7695 478.151 28.7141V36H475.921V28.9826C475.921 28.1523 475.705 27.5036 475.273 27.0362C474.84 26.5639 474.246 26.3278 473.49 26.3278C472.973 26.3278 472.513 26.4396 472.111 26.6634C471.713 26.8871 471.397 27.2152 471.164 27.6477C470.935 28.0753 470.821 28.5923 470.821 29.1989ZM485.127 36.2312C484.053 36.2312 483.116 35.9851 482.315 35.4929C481.515 35.0007 480.893 34.3121 480.451 33.4272C480.008 32.5423 479.787 31.5082 479.787 30.3249C479.787 29.1367 480.008 28.0977 480.451 27.2077C480.893 26.3178 481.515 25.6268 482.315 25.1346C483.116 24.6424 484.053 24.3963 485.127 24.3963C486.2 24.3963 487.138 24.6424 487.938 25.1346C488.738 25.6268 489.36 26.3178 489.802 27.2077C490.245 28.0977 490.466 29.1367 490.466 30.3249C490.466 31.5082 490.245 32.5423 489.802 33.4272C489.36 34.3121 488.738 35.0007 487.938 35.4929C487.138 35.9851 486.2 36.2312 485.127 36.2312ZM485.134 34.3594C485.83 34.3594 486.407 34.1754 486.864 33.8075C487.322 33.4396 487.66 32.9499 487.878 32.3384C488.102 31.7269 488.214 31.0533 488.214 30.3175C488.214 29.5866 488.102 28.9155 487.878 28.304C487.66 27.6875 487.322 27.1928 486.864 26.82C486.407 26.4471 485.83 26.2607 485.134 26.2607C484.433 26.2607 483.851 26.4471 483.389 26.82C482.932 27.1928 482.591 27.6875 482.367 28.304C482.149 28.9155 482.039 29.5866 482.039 30.3175C482.039 31.0533 482.149 31.7269 482.367 32.3384C482.591 32.9499 482.932 33.4396 483.389 33.8075C483.851 34.1754 484.433 34.3594 485.134 34.3594ZM494.25 36L490.879 24.5455H493.183L495.428 32.9574H495.54L497.792 24.5455H500.096L502.333 32.9201H502.445L504.675 24.5455H506.979L503.616 36H501.342L499.015 27.7298H498.843L496.517 36H494.25ZM511.067 20.7273L510.873 31.6076H508.807L508.613 20.7273H511.067ZM509.844 36.1417C509.431 36.1417 509.078 35.9975 508.785 35.7092C508.492 35.4158 508.347 35.0629 508.352 34.6502C508.347 34.2425 508.492 33.8945 508.785 33.6062C509.078 33.3129 509.431 33.1662 509.844 33.1662C510.247 33.1662 510.595 33.3129 510.888 33.6062C511.181 33.8945 511.33 34.2425 511.335 34.6502C511.33 34.9237 511.258 35.1747 511.119 35.4034C510.985 35.6271 510.806 35.8061 510.582 35.9403C510.358 36.0746 510.112 36.1417 509.844 36.1417Z" fill="white"/>
<defs>
<linearGradient id="paint0_linear_738_6604" x1="-178.964" y1="70.6716" x2="33.0015" y2="-318.692" gradientUnits="userSpaceOnUse">
<stop stop-color="#30B0FB"/>
<stop offset="1" stop-color="#80D731"/>
</linearGradient>
</defs>
</svg>
